<svg xmlns="http://www.w3.org/2000/svg" xmlns:xlink="http://www.w3.org/1999/xlink" width="480" zoomAndPan="magnify" viewBox="0 0 360 96.749999" height="129" preserveAspectRatio="xMidYMid meet" version="1.0"><defs><g/></defs><g fill="#a6a4a4" fill-opacity="1"><g transform="translate(44.280152, 69.939506)"><g><path d="M 48.71875 0 L 38.15625 0 L 34.34375 -11.703125 L 14.890625 -11.703125 L 11.078125 0 L 0.765625 0 L 18.296875 -50.765625 L 31.1875 -50.765625 Z M 24.125 -40.171875 L 17.609375 -20.140625 L 31.5625 -20.140625 L 25 -40.171875 Z M 24.125 -40.171875 "/></g></g></g><g fill="#a6a4a4" fill-opacity="1"><g transform="translate(93.752587, 69.939506)"><g><path d="M 5.515625 0 L 5.515625 -38.296875 L 14.75 -38.296875 L 14.75 -32.671875 L 15.484375 -32.5 C 17.867188 -36.851562 21.734375 -39.03125 27.078125 -39.03125 C 31.503906 -39.03125 34.75 -37.828125 36.8125 -35.421875 C 38.882812 -33.015625 39.921875 -29.503906 39.921875 -24.890625 L 39.921875 0 L 30.3125 0 L 30.3125 -23.71875 C 30.3125 -26.257812 29.800781 -28.09375 28.78125 -29.21875 C 27.757812 -30.34375 26.128906 -30.90625 23.890625 -30.90625 C 21.128906 -30.90625 18.976562 -30.015625 17.4375 -28.234375 C 15.90625 -26.453125 15.140625 -23.648438 15.140625 -19.828125 L 15.140625 0 Z M 5.515625 0 "/></g></g></g><g fill="#a6a4a4" fill-opacity="1"><g transform="translate(138.607589, 69.939506)"><g><path d="M 26.421875 -9.125 L 28.921875 -2.015625 C 27.878906 -1.160156 26.570312 -0.488281 25 0 C 23.425781 0.488281 21.644531 0.734375 19.65625 0.734375 C 15.507812 0.734375 12.359375 -0.394531 10.203125 -2.65625 C 8.054688 -4.914062 6.984375 -8.195312 6.984375 -12.5 L 6.984375 -30.6875 L 1.140625 -30.6875 L 1.140625 -38.328125 L 6.984375 -38.328125 L 6.984375 -45.796875 L 16.59375 -47.359375 L 16.59375 -38.328125 L 27.46875 -38.328125 L 27.46875 -30.6875 L 16.59375 -30.6875 L 16.59375 -13.1875 C 16.59375 -11.289062 16.984375 -9.910156 17.765625 -9.046875 C 18.554688 -8.179688 19.707031 -7.75 21.21875 -7.75 C 22.925781 -7.75 24.414062 -8.207031 25.6875 -9.125 Z M 26.421875 -9.125 "/></g></g></g><g fill="#a6a4a4" fill-opacity="1"><g transform="translate(168.360488, 69.939506)"><g><path d="M 14.9375 0.734375 C 12.476562 0.734375 10.34375 0.28125 8.53125 -0.625 C 6.726562 -1.53125 5.34375 -2.851562 4.375 -4.59375 C 3.40625 -6.34375 2.921875 -8.445312 2.921875 -10.90625 C 2.921875 -13.175781 3.40625 -15.078125 4.375 -16.609375 C 5.34375 -18.148438 6.84375 -19.410156 8.875 -20.390625 C 10.914062 -21.378906 13.582031 -22.140625 16.875 -22.671875 C 19.164062 -23.046875 20.90625 -23.453125 22.09375 -23.890625 C 23.289062 -24.328125 24.097656 -24.820312 24.515625 -25.375 C 24.929688 -25.9375 25.140625 -26.644531 25.140625 -27.5 C 25.140625 -28.726562 24.707031 -29.664062 23.84375 -30.3125 C 22.988281 -30.957031 21.566406 -31.28125 19.578125 -31.28125 C 17.453125 -31.28125 15.425781 -30.804688 13.5 -29.859375 C 11.582031 -28.910156 9.914062 -27.660156 8.5 -26.109375 L 7.8125 -26.109375 L 3.78125 -32.1875 C 5.726562 -34.34375 8.101562 -36.019531 10.90625 -37.21875 C 13.707031 -38.425781 16.757812 -39.03125 20.0625 -39.03125 C 25.132812 -39.03125 28.804688 -37.953125 31.078125 -35.796875 C 33.347656 -33.640625 34.484375 -30.582031 34.484375 -26.625 L 34.484375 -10 C 34.484375 -8.289062 35.234375 -7.4375 36.734375 -7.4375 C 37.316406 -7.4375 37.882812 -7.539062 38.4375 -7.75 L 38.921875 -7.609375 L 39.609375 -0.90625 C 39.078125 -0.550781 38.335938 -0.265625 37.390625 -0.046875 C 36.441406 0.171875 35.398438 0.28125 34.265625 0.28125 C 31.972656 0.28125 30.1875 -0.15625 28.90625 -1.03125 C 27.625 -1.914062 26.703125 -3.296875 26.140625 -5.171875 L 25.421875 -5.25 C 23.546875 -1.257812 20.050781 0.734375 14.9375 0.734375 Z M 17.984375 -6.453125 C 20.203125 -6.453125 21.976562 -7.195312 23.3125 -8.6875 C 24.644531 -10.1875 25.3125 -12.269531 25.3125 -14.9375 L 25.3125 -18.8125 L 24.65625 -18.953125 C 24.070312 -18.492188 23.3125 -18.109375 22.375 -17.796875 C 21.4375 -17.484375 20.085938 -17.175781 18.328125 -16.875 C 16.242188 -16.53125 14.742188 -15.929688 13.828125 -15.078125 C 12.921875 -14.234375 12.46875 -13.039062 12.46875 -11.5 C 12.46875 -9.851562 12.953125 -8.597656 13.921875 -7.734375 C 14.890625 -6.878906 16.242188 -6.453125 17.984375 -6.453125 Z M 17.984375 -6.453125 "/></g></g></g><g fill="#a6a4a4" fill-opacity="1"><g transform="translate(208.736939, 69.939506)"><g><path d="M 5.515625 0 L 5.515625 -38.296875 L 14.859375 -38.296875 L 14.859375 -32.609375 L 15.59375 -32.46875 C 16.519531 -34.59375 17.734375 -36.148438 19.234375 -37.140625 C 20.742188 -38.140625 22.570312 -38.640625 24.71875 -38.640625 C 26.894531 -38.640625 28.550781 -38.269531 29.6875 -37.53125 L 28.0625 -29.234375 L 27.328125 -29.09375 C 26.703125 -29.351562 26.097656 -29.539062 25.515625 -29.65625 C 24.941406 -29.769531 24.238281 -29.828125 23.40625 -29.828125 C 20.71875 -29.828125 18.664062 -28.882812 17.25 -27 C 15.84375 -25.113281 15.140625 -22.085938 15.140625 -17.921875 L 15.140625 0 Z M 5.515625 0 "/></g></g></g><g fill="#a6a4a4" fill-opacity="1"><g transform="translate(238.767565, 69.939506)"><g><path d="M 37.84375 -16.984375 L 13.234375 -16.984375 C 13.503906 -13.648438 14.445312 -11.222656 16.0625 -9.703125 C 17.6875 -8.191406 19.898438 -7.4375 22.703125 -7.4375 C 24.898438 -7.4375 26.679688 -7.84375 28.046875 -8.65625 C 29.421875 -9.476562 30.523438 -10.722656 31.359375 -12.390625 L 32.078125 -12.390625 L 38.46875 -8.296875 C 37.21875 -5.609375 35.332031 -3.429688 32.8125 -1.765625 C 30.289062 -0.0976562 26.921875 0.734375 22.703125 0.734375 C 18.742188 0.734375 15.320312 -0.015625 12.4375 -1.515625 C 9.5625 -3.023438 7.34375 -5.265625 5.78125 -8.234375 C 4.21875 -11.210938 3.4375 -14.84375 3.4375 -19.125 C 3.4375 -23.476562 4.257812 -27.148438 5.90625 -30.140625 C 7.550781 -33.128906 9.769531 -35.359375 12.5625 -36.828125 C 15.363281 -38.296875 18.515625 -39.03125 22.015625 -39.03125 C 27.429688 -39.03125 31.578125 -37.59375 34.453125 -34.71875 C 37.335938 -31.851562 38.78125 -27.640625 38.78125 -22.078125 C 38.78125 -20.066406 38.710938 -18.503906 38.578125 -17.390625 Z M 29.578125 -23.1875 C 29.484375 -26.101562 28.804688 -28.226562 27.546875 -29.5625 C 26.285156 -30.894531 24.441406 -31.5625 22.015625 -31.5625 C 17.148438 -31.5625 14.289062 -28.769531 13.4375 -23.1875 Z M 29.578125 -23.1875 "/></g></g></g><g fill="#a6a4a4" fill-opacity="1"><g transform="translate(280.393858, 69.939506)"><g><path d="M 17.921875 0.734375 C 15.304688 0.734375 12.910156 0.425781 10.734375 -0.1875 C 8.554688 -0.800781 6.695312 -1.644531 5.15625 -2.71875 C 3.613281 -3.800781 2.472656 -5.035156 1.734375 -6.421875 L 7.078125 -12.1875 L 7.8125 -12.1875 C 9.082031 -10.476562 10.585938 -9.191406 12.328125 -8.328125 C 14.066406 -7.472656 15.953125 -7.046875 17.984375 -7.046875 C 19.859375 -7.046875 21.269531 -7.378906 22.21875 -8.046875 C 23.164062 -8.722656 23.640625 -9.6875 23.640625 -10.9375 C 23.640625 -11.90625 23.296875 -12.71875 22.609375 -13.375 C 21.929688 -14.039062 20.832031 -14.5625 19.3125 -14.9375 L 14.234375 -16.140625 C 10.441406 -17.046875 7.671875 -18.429688 5.921875 -20.296875 C 4.171875 -22.160156 3.296875 -24.523438 3.296875 -27.390625 C 3.296875 -29.773438 3.898438 -31.847656 5.109375 -33.609375 C 6.328125 -35.367188 8.039062 -36.710938 10.25 -37.640625 C 12.46875 -38.566406 15.046875 -39.03125 17.984375 -39.03125 C 21.429688 -39.03125 24.289062 -38.53125 26.5625 -37.53125 C 28.832031 -36.539062 30.601562 -35.210938 31.875 -33.546875 L 26.734375 -27.984375 L 26.046875 -27.984375 C 24.972656 -29.191406 23.769531 -30.070312 22.4375 -30.625 C 21.113281 -31.175781 19.628906 -31.453125 17.984375 -31.453125 C 14.191406 -31.453125 12.296875 -30.273438 12.296875 -27.921875 C 12.296875 -26.921875 12.644531 -26.109375 13.34375 -25.484375 C 14.050781 -24.859375 15.296875 -24.347656 17.078125 -23.953125 L 21.8125 -22.921875 C 25.695312 -22.085938 28.535156 -20.75 30.328125 -18.90625 C 32.117188 -17.0625 33.015625 -14.59375 33.015625 -11.5 C 33.015625 -9.0625 32.410156 -6.914062 31.203125 -5.0625 C 30.003906 -3.21875 28.269531 -1.789062 26 -0.78125 C 23.738281 0.226562 21.046875 0.734375 17.921875 0.734375 Z M 17.921875 0.734375 "/></g></g></g></svg>