<svg xmlns="http://www.w3.org/2000/svg" xmlns:xlink="http://www.w3.org/1999/xlink" width="480" zoomAndPan="magnify" viewBox="0 0 360 96.749999" height="129" preserveAspectRatio="xMidYMid meet" version="1.0"><defs><g/></defs><g fill="#a6a4a4" fill-opacity="1"><g transform="translate(28.734385, 69.939506)"><g><path d="M 48.71875 0 L 38.15625 0 L 34.34375 -11.703125 L 14.890625 -11.703125 L 11.078125 0 L 0.765625 0 L 18.296875 -50.765625 L 31.1875 -50.765625 Z M 24.125 -40.171875 L 17.609375 -20.140625 L 31.5625 -20.140625 L 25 -40.171875 Z M 24.125 -40.171875 "/></g></g></g><g fill="#a6a4a4" fill-opacity="1"><g transform="translate(78.20682, 69.939506)"><g><path d="M 5.515625 0 L 5.515625 -38.296875 L 14.859375 -38.296875 L 14.859375 -32.609375 L 15.59375 -32.46875 C 16.519531 -34.59375 17.734375 -36.148438 19.234375 -37.140625 C 20.742188 -38.140625 22.570312 -38.640625 24.71875 -38.640625 C 26.894531 -38.640625 28.550781 -38.269531 29.6875 -37.53125 L 28.0625 -29.234375 L 27.328125 -29.09375 C 26.703125 -29.351562 26.097656 -29.539062 25.515625 -29.65625 C 24.941406 -29.769531 24.238281 -29.828125 23.40625 -29.828125 C 20.71875 -29.828125 18.664062 -28.882812 17.25 -27 C 15.84375 -25.113281 15.140625 -22.085938 15.140625 -17.921875 L 15.140625 0 Z M 5.515625 0 "/></g></g></g><g fill="#a6a4a4" fill-opacity="1"><g transform="translate(108.237459, 69.939506)"><g><path d="M 26.421875 -9.125 L 28.921875 -2.015625 C 27.878906 -1.160156 26.570312 -0.488281 25 0 C 23.425781 0.488281 21.644531 0.734375 19.65625 0.734375 C 15.507812 0.734375 12.359375 -0.394531 10.203125 -2.65625 C 8.054688 -4.914062 6.984375 -8.195312 6.984375 -12.5 L 6.984375 -30.6875 L 1.140625 -30.6875 L 1.140625 -38.328125 L 6.984375 -38.328125 L 6.984375 -45.796875 L 16.59375 -47.359375 L 16.59375 -38.328125 L 27.46875 -38.328125 L 27.46875 -30.6875 L 16.59375 -30.6875 L 16.59375 -13.1875 C 16.59375 -11.289062 16.984375 -9.910156 17.765625 -9.046875 C 18.554688 -8.179688 19.707031 -7.75 21.21875 -7.75 C 22.925781 -7.75 24.414062 -8.207031 25.6875 -9.125 Z M 26.421875 -9.125 "/></g></g></g><g fill="#a6a4a4" fill-opacity="1"><g transform="translate(137.987229, 69.939506)"><g><path d="M 7.671875 0 L 7.671875 -50.765625 L 26.90625 -50.765625 C 30.03125 -50.765625 32.679688 -50.265625 34.859375 -49.265625 C 37.035156 -48.273438 38.671875 -46.859375 39.765625 -45.015625 C 40.867188 -43.171875 41.421875 -40.976562 41.421875 -38.4375 C 41.421875 -36.238281 40.820312 -34.25 39.625 -32.46875 C 38.4375 -30.6875 36.734375 -29.296875 34.515625 -28.296875 L 34.515625 -27.5625 C 37.890625 -26.726562 40.453125 -25.210938 42.203125 -23.015625 C 43.953125 -20.816406 44.828125 -18.050781 44.828125 -14.71875 C 44.828125 -10 43.441406 -6.363281 40.671875 -3.8125 C 37.910156 -1.269531 33.8125 0 28.375 0 Z M 26.625 -29.4375 C 29.425781 -29.4375 31.601562 -30.171875 33.15625 -31.640625 C 34.707031 -33.117188 35.484375 -35.140625 35.484375 -37.703125 C 35.484375 -40.410156 34.734375 -42.441406 33.234375 -43.796875 C 31.742188 -45.148438 29.539062 -45.828125 26.625 -45.828125 L 13.640625 -45.828125 L 13.640625 -29.4375 Z M 27.921875 -4.9375 C 35.140625 -4.9375 38.75 -8.195312 38.75 -14.71875 C 38.75 -21.25 35.140625 -24.515625 27.921875 -24.515625 L 13.640625 -24.515625 L 13.640625 -4.9375 Z M 27.921875 -4.9375 "/></g></g></g><g fill="#a6a4a4" fill-opacity="1"><g transform="translate(186.834749, 69.939506)"><g><path d="M 6.671875 0 L 6.671875 -38.296875 L 12.046875 -38.296875 L 12.046875 -32.296875 L 12.78125 -32.125 C 14.5625 -36.46875 17.914062 -38.640625 22.84375 -38.640625 C 25.457031 -38.640625 27.414062 -38.164062 28.71875 -37.21875 L 27.25 -32.4375 L 26.5625 -32.296875 C 25.125 -33.015625 23.550781 -33.375 21.84375 -33.375 C 18.78125 -33.375 16.425781 -32.226562 14.78125 -29.9375 C 13.144531 -27.644531 12.328125 -23.925781 12.328125 -18.78125 L 12.328125 0 Z M 6.671875 0 "/></g></g></g><g fill="#a6a4a4" fill-opacity="1"><g transform="translate(216.414054, 69.939506)"><g><path d="M 15.796875 0.734375 C 12.023438 0.734375 9.078125 -0.25 6.953125 -2.21875 C 4.835938 -4.1875 3.78125 -7 3.78125 -10.65625 C 3.78125 -12.925781 4.25 -14.84375 5.1875 -16.40625 C 6.125 -17.96875 7.578125 -19.238281 9.546875 -20.21875 C 11.515625 -21.207031 14.082031 -21.96875 17.25 -22.5 C 20.03125 -22.957031 22.144531 -23.476562 23.59375 -24.0625 C 25.039062 -24.644531 26.007812 -25.289062 26.5 -26 C 27 -26.71875 27.25 -27.625 27.25 -28.71875 C 27.25 -30.445312 26.65625 -31.773438 25.46875 -32.703125 C 24.28125 -33.628906 22.363281 -34.09375 19.71875 -34.09375 C 17.238281 -34.09375 15.113281 -33.613281 13.34375 -32.65625 C 11.570312 -31.695312 9.945312 -30.269531 8.46875 -28.375 L 7.78125 -28.375 L 5 -32.296875 C 6.625 -34.347656 8.6875 -35.984375 11.1875 -37.203125 C 13.6875 -38.421875 16.53125 -39.03125 19.71875 -39.03125 C 24.238281 -39.03125 27.566406 -38.039062 29.703125 -36.0625 C 31.847656 -34.082031 32.921875 -31.34375 32.921875 -27.84375 L 32.921875 -7.53125 C 32.921875 -5.40625 33.820312 -4.34375 35.625 -4.34375 C 36.226562 -4.34375 36.804688 -4.445312 37.359375 -4.65625 L 37.84375 -4.515625 L 38.5 -0.59375 C 38.082031 -0.3125 37.53125 -0.0976562 36.84375 0.046875 C 36.164062 0.203125 35.46875 0.28125 34.75 0.28125 C 32.644531 0.28125 31.054688 -0.179688 29.984375 -1.109375 C 28.910156 -2.035156 28.222656 -3.398438 27.921875 -5.203125 L 27.1875 -5.28125 C 26.101562 -3.257812 24.632812 -1.75 22.78125 -0.75 C 20.925781 0.238281 18.597656 0.734375 15.796875 0.734375 Z M 17.046875 -3.78125 C 19.179688 -3.78125 21.03125 -4.269531 22.59375 -5.25 C 24.15625 -6.238281 25.351562 -7.625 26.1875 -9.40625 C 27.019531 -11.1875 27.4375 -13.25 27.4375 -15.59375 L 27.4375 -20.453125 L 26.765625 -20.59375 C 25.910156 -19.988281 24.867188 -19.484375 23.640625 -19.078125 C 22.421875 -18.671875 20.707031 -18.304688 18.5 -17.984375 C 16.28125 -17.679688 14.515625 -17.21875 13.203125 -16.59375 C 11.898438 -15.96875 10.96875 -15.175781 10.40625 -14.21875 C 9.851562 -13.257812 9.578125 -12.070312 9.578125 -10.65625 C 9.578125 -8.414062 10.238281 -6.707031 11.5625 -5.53125 C 12.882812 -4.363281 14.710938 -3.78125 17.046875 -3.78125 Z M 17.046875 -3.78125 "/></g></g></g><g fill="#a6a4a4" fill-opacity="1"><g transform="translate(256.02672, 69.939506)"><g><path d="M 17.46875 0.734375 C 15.0625 0.734375 12.832031 0.414062 10.78125 -0.21875 C 8.726562 -0.863281 6.992188 -1.738281 5.578125 -2.84375 C 4.171875 -3.957031 3.179688 -5.207031 2.609375 -6.59375 L 5.9375 -10.0625 L 6.671875 -10.0625 C 7.921875 -8.164062 9.421875 -6.738281 11.171875 -5.78125 C 12.929688 -4.820312 15.03125 -4.34375 17.46875 -4.34375 C 20.289062 -4.34375 22.4375 -4.890625 23.90625 -5.984375 C 25.375 -7.085938 26.109375 -8.625 26.109375 -10.59375 C 26.109375 -12.09375 25.660156 -13.332031 24.765625 -14.3125 C 23.878906 -15.300781 22.441406 -16.039062 20.453125 -16.53125 L 14 -18.125 C 10.539062 -18.957031 8.019531 -20.273438 6.4375 -22.078125 C 4.851562 -23.890625 4.0625 -26.125 4.0625 -28.78125 C 4.0625 -30.863281 4.59375 -32.675781 5.65625 -34.21875 C 6.71875 -35.757812 8.25 -36.945312 10.25 -37.78125 C 12.257812 -38.613281 14.640625 -39.03125 17.390625 -39.03125 C 20.910156 -39.03125 23.679688 -38.535156 25.703125 -37.546875 C 27.734375 -36.566406 29.316406 -35.195312 30.453125 -33.4375 L 27.25 -30.3125 L 26.5625 -30.3125 C 25.332031 -31.726562 23.992188 -32.75 22.546875 -33.375 C 21.097656 -34 19.378906 -34.3125 17.390625 -34.3125 C 14.867188 -34.3125 12.9375 -33.859375 11.59375 -32.953125 C 10.25 -32.046875 9.578125 -30.738281 9.578125 -29.03125 C 9.578125 -27.476562 10.050781 -26.226562 11 -25.28125 C 11.957031 -24.332031 13.613281 -23.566406 15.96875 -22.984375 L 22.328125 -21.453125 C 25.660156 -20.671875 28.066406 -19.363281 29.546875 -17.53125 C 31.023438 -15.707031 31.765625 -13.414062 31.765625 -10.65625 C 31.765625 -8.414062 31.234375 -6.4375 30.171875 -4.71875 C 29.109375 -3.007812 27.5 -1.671875 25.34375 -0.703125 C 23.195312 0.253906 20.570312 0.734375 17.46875 0.734375 Z M 17.46875 0.734375 "/></g></g></g><g fill="#a6a4a4" fill-opacity="1"><g transform="translate(291.438564, 69.939506)"><g><path d="M 9.515625 -45.6875 C 8.304688 -45.6875 7.328125 -46.0625 6.578125 -46.8125 C 5.828125 -47.570312 5.453125 -48.53125 5.453125 -49.6875 C 5.453125 -50.84375 5.828125 -51.796875 6.578125 -52.546875 C 7.328125 -53.296875 8.304688 -53.671875 9.515625 -53.671875 C 10.710938 -53.671875 11.6875 -53.296875 12.4375 -52.546875 C 13.195312 -51.796875 13.578125 -50.84375 13.578125 -49.6875 C 13.578125 -48.53125 13.195312 -47.570312 12.4375 -46.8125 C 11.6875 -46.0625 10.710938 -45.6875 9.515625 -45.6875 Z M 6.671875 0 L 6.671875 -38.296875 L 12.328125 -38.296875 L 12.328125 0 Z M 6.671875 0 "/></g></g></g><g fill="#a6a4a4" fill-opacity="1"><g transform="translate(310.429039, 69.939506)"><g><path d="M 15.25 0.734375 C 12.539062 0.734375 10.410156 -0.0351562 8.859375 -1.578125 C 7.304688 -3.117188 6.53125 -5.414062 6.53125 -8.46875 L 6.53125 -53.671875 L 12.1875 -53.671875 L 12.1875 -8.859375 C 12.1875 -7.253906 12.492188 -6.097656 13.109375 -5.390625 C 13.722656 -4.691406 14.675781 -4.34375 15.96875 -4.34375 C 16.757812 -4.34375 17.5625 -4.46875 18.375 -4.71875 L 18.859375 -4.578125 L 19.515625 -0.140625 C 19.097656 0.140625 18.5 0.351562 17.71875 0.5 C 16.945312 0.65625 16.125 0.734375 15.25 0.734375 Z M 15.25 0.734375 "/></g></g></g></svg>