<svg xmlns="http://www.w3.org/2000/svg" xmlns:xlink="http://www.w3.org/1999/xlink" width="480" zoomAndPan="magnify" viewBox="0 0 360 96.749999" height="129" preserveAspectRatio="xMidYMid meet" version="1.0"><defs><g/><clipPath id="6ba8fe5921"><path d="M 0.464844 0 L 359.535156 0 L 359.535156 96.5 L 0.464844 96.5 Z M 0.464844 0 " clip-rule="nonzero"/></clipPath></defs><g clip-path="url(#6ba8fe5921)"><path fill="#ffffff" d="M 0.464844 0 L 359.535156 0 L 359.535156 103.234375 L 0.464844 103.234375 Z M 0.464844 0 " fill-opacity="1" fill-rule="nonzero"/><path fill="#ffffff" d="M 0.464844 0 L 359.535156 0 L 359.535156 96.5 L 0.464844 96.5 Z M 0.464844 0 " fill-opacity="1" fill-rule="nonzero"/><path fill="#ffffff" d="M 0.464844 0 L 359.535156 0 L 359.535156 96.5 L 0.464844 96.5 Z M 0.464844 0 " fill-opacity="1" fill-rule="nonzero"/></g><g fill="#a6a4a4" fill-opacity="1"><g transform="translate(19.301728, 69.939506)"><g><path d="M 24.09375 -50.765625 C 29.238281 -50.765625 33.65625 -49.84375 37.34375 -48 C 41.03125 -46.15625 43.875 -43.347656 45.875 -39.578125 C 47.882812 -35.804688 48.890625 -31.070312 48.890625 -25.375 C 48.890625 -19.6875 47.882812 -14.953125 45.875 -11.171875 C 43.875 -7.398438 41.03125 -4.59375 37.34375 -2.75 C 33.65625 -0.914062 29.238281 0 24.09375 0 L 7.671875 0 L 7.671875 -50.765625 Z M 23.5 -5.0625 C 27.738281 -5.0625 31.242188 -5.722656 34.015625 -7.046875 C 36.796875 -8.367188 38.90625 -10.519531 40.34375 -13.5 C 41.78125 -16.488281 42.5 -20.445312 42.5 -25.375 C 42.5 -30.332031 41.78125 -34.296875 40.34375 -37.265625 C 38.90625 -40.242188 36.796875 -42.390625 34.015625 -43.703125 C 31.242188 -45.023438 27.738281 -45.6875 23.5 -45.6875 L 13.640625 -45.6875 L 13.640625 -5.0625 Z M 23.5 -5.0625 "/></g></g></g><g fill="#a6a4a4" fill-opacity="1"><g transform="translate(73.252714, 69.939506)"><g><path d="M 7.78125 -42.78125 L 3.609375 -42.78125 L 3.609375 -43.5 L 9.578125 -53.671875 L 16.671875 -53.671875 L 16.671875 -52.953125 Z M 7.78125 -42.78125 "/></g></g></g><g fill="#a6a4a4" fill-opacity="1"><g transform="translate(93.597166, 69.939506)"><g><path d="M 45.6875 0 L 39.296875 0 L 34.625 -13.921875 L 12.984375 -13.921875 L 8.265625 0 L 2.015625 0 L 19.71875 -50.765625 L 27.984375 -50.765625 Z M 23.375 -44.609375 L 14.65625 -18.921875 L 32.921875 -18.921875 L 24.234375 -44.609375 Z M 23.375 -44.609375 "/></g></g></g><g fill="#a6a4a4" fill-opacity="1"><g transform="translate(141.299003, 69.939506)"><g><path d="M 6.671875 0 L 6.671875 -38.296875 L 12.046875 -38.296875 L 12.046875 -32.296875 L 12.78125 -32.125 C 14.050781 -34.363281 15.675781 -36.070312 17.65625 -37.25 C 19.632812 -38.4375 22.046875 -39.03125 24.890625 -39.03125 C 29.503906 -39.03125 32.84375 -37.851562 34.90625 -35.5 C 36.976562 -33.15625 38.015625 -29.539062 38.015625 -24.65625 L 38.015625 0 L 32.359375 0 L 32.359375 -24.515625 C 32.359375 -26.828125 32.0625 -28.679688 31.46875 -30.078125 C 30.882812 -31.484375 29.972656 -32.503906 28.734375 -33.140625 C 27.492188 -33.773438 25.867188 -34.09375 23.859375 -34.09375 C 20.410156 -34.09375 17.625 -32.953125 15.5 -30.671875 C 13.382812 -28.390625 12.328125 -24.71875 12.328125 -19.65625 L 12.328125 0 Z M 6.671875 0 "/></g></g></g><g fill="#a6a4a4" fill-opacity="1"><g transform="translate(185.39022, 69.939506)"><g><path d="M 19.71875 16.25 C 13.675781 16.25 9.265625 15.238281 6.484375 13.21875 C 3.710938 11.207031 2.328125 8.535156 2.328125 5.203125 C 2.328125 3.054688 2.972656 1.34375 4.265625 0.0625 C 5.566406 -1.207031 7.457031 -2.117188 9.9375 -2.671875 L 9.9375 -3.40625 C 8.75 -4.070312 7.859375 -4.859375 7.265625 -5.765625 C 6.679688 -6.671875 6.390625 -7.75 6.390625 -9 C 6.390625 -10.476562 6.859375 -11.679688 7.796875 -12.609375 C 8.734375 -13.535156 10.128906 -14.238281 11.984375 -14.71875 L 11.984375 -15.453125 C 7.816406 -17.648438 5.734375 -21.226562 5.734375 -26.1875 C 5.734375 -28.6875 6.296875 -30.90625 7.421875 -32.84375 C 8.554688 -34.789062 10.175781 -36.304688 12.28125 -37.390625 C 14.394531 -38.484375 16.851562 -39.03125 19.65625 -39.03125 C 22.875 -39.03125 25.554688 -38.320312 27.703125 -36.90625 C 28.515625 -37.8125 29.125 -38.78125 29.53125 -39.8125 C 29.9375 -40.84375 30.195312 -42.003906 30.3125 -43.296875 L 31.046875 -43.75 L 35.6875 -42.640625 C 35.457031 -40.691406 34.875 -39.046875 33.9375 -37.703125 C 33 -36.359375 31.675781 -35.25 29.96875 -34.375 L 29.96875 -33.640625 C 31.195312 -32.671875 32.101562 -31.53125 32.6875 -30.21875 C 33.28125 -28.914062 33.578125 -27.394531 33.578125 -25.65625 C 33.578125 -23.25 33 -21.082031 31.84375 -19.15625 C 30.6875 -17.238281 29.050781 -15.726562 26.9375 -14.625 C 24.832031 -13.53125 22.40625 -12.984375 19.65625 -12.984375 C 19.332031 -12.984375 18.753906 -13.007812 17.921875 -13.0625 C 16.992188 -13.101562 16.3125 -13.125 15.875 -13.125 C 14.664062 -13.125 13.703125 -12.8125 12.984375 -12.1875 C 12.265625 -11.5625 11.90625 -10.765625 11.90625 -9.796875 C 11.90625 -8.585938 12.289062 -7.695312 13.0625 -7.125 C 13.84375 -6.5625 15.125 -6.25 16.90625 -6.1875 L 25.96875 -5.875 C 29.882812 -5.726562 32.785156 -4.816406 34.671875 -3.140625 C 36.554688 -1.460938 37.5 0.914062 37.5 4 C 37.5 6.289062 36.882812 8.351562 35.65625 10.1875 C 34.425781 12.03125 32.476562 13.5 29.8125 14.59375 C 27.15625 15.695312 23.789062 16.25 19.71875 16.25 Z M 19.65625 -17.84375 C 22.363281 -17.84375 24.457031 -18.546875 25.9375 -19.953125 C 27.414062 -21.367188 28.15625 -23.351562 28.15625 -25.90625 C 28.15625 -28.539062 27.421875 -30.578125 25.953125 -32.015625 C 24.484375 -33.453125 22.382812 -34.171875 19.65625 -34.171875 C 16.925781 -34.171875 14.84375 -33.457031 13.40625 -32.03125 C 11.96875 -30.601562 11.25 -28.5625 11.25 -25.90625 C 11.25 -23.332031 11.96875 -21.34375 13.40625 -19.9375 C 14.84375 -18.539062 16.925781 -17.84375 19.65625 -17.84375 Z M 19.71875 11.390625 C 22.539062 11.390625 24.847656 11.078125 26.640625 10.453125 C 28.441406 9.828125 29.734375 9 30.515625 7.96875 C 31.304688 6.9375 31.703125 5.785156 31.703125 4.515625 C 31.703125 3.378906 31.488281 2.460938 31.0625 1.765625 C 30.632812 1.078125 29.941406 0.554688 28.984375 0.203125 C 28.035156 -0.140625 26.742188 -0.359375 25.109375 -0.453125 L 16.53125 -0.875 L 15.3125 -0.875 C 10.519531 -0.800781 8.125 1.0625 8.125 4.71875 C 8.125 9.164062 11.988281 11.390625 19.71875 11.390625 Z M 19.71875 11.390625 "/></g></g></g><g fill="#a6a4a4" fill-opacity="1"><g transform="translate(224.621, 69.939506)"><g><path d="M 36.484375 -17.84375 L 10.171875 -17.84375 C 10.335938 -13.195312 11.453125 -9.785156 13.515625 -7.609375 C 15.585938 -5.429688 18.429688 -4.34375 22.046875 -4.34375 C 24.773438 -4.34375 26.972656 -4.828125 28.640625 -5.796875 C 30.304688 -6.765625 31.613281 -8.289062 32.5625 -10.375 L 33.296875 -10.375 L 36.984375 -8.1875 C 35.867188 -5.414062 34.085938 -3.234375 31.640625 -1.640625 C 29.203125 -0.0546875 26.003906 0.734375 22.046875 0.734375 C 18.347656 0.734375 15.164062 0.00390625 12.5 -1.453125 C 9.832031 -2.910156 7.78125 -5.117188 6.34375 -8.078125 C 4.914062 -11.046875 4.203125 -14.726562 4.203125 -19.125 C 4.203125 -23.476562 4.957031 -27.148438 6.46875 -30.140625 C 7.988281 -33.128906 10.0625 -35.359375 12.6875 -36.828125 C 15.3125 -38.296875 18.316406 -39.03125 21.703125 -39.03125 C 26.609375 -39.03125 30.4375 -37.644531 33.1875 -34.875 C 35.945312 -32.113281 37.335938 -28.007812 37.359375 -22.5625 C 37.359375 -20.4375 37.3125 -19.003906 37.21875 -18.265625 Z M 31.765625 -22.5625 C 31.671875 -26.644531 30.769531 -29.609375 29.0625 -31.453125 C 27.351562 -33.304688 24.898438 -34.234375 21.703125 -34.234375 C 18.347656 -34.234375 15.710938 -33.300781 13.796875 -31.4375 C 11.890625 -29.570312 10.726562 -26.613281 10.3125 -22.5625 Z M 31.765625 -22.5625 "/></g></g></g><g fill="#a6a4a4" fill-opacity="1"><g transform="translate(265.448773, 69.939506)"><g><path d="M 15.25 0.734375 C 12.539062 0.734375 10.410156 -0.0351562 8.859375 -1.578125 C 7.304688 -3.117188 6.53125 -5.414062 6.53125 -8.46875 L 6.53125 -53.671875 L 12.1875 -53.671875 L 12.1875 -8.859375 C 12.1875 -7.253906 12.492188 -6.097656 13.109375 -5.390625 C 13.722656 -4.691406 14.675781 -4.34375 15.96875 -4.34375 C 16.757812 -4.34375 17.5625 -4.46875 18.375 -4.71875 L 18.859375 -4.578125 L 19.515625 -0.140625 C 19.097656 0.140625 18.5 0.351562 17.71875 0.5 C 16.945312 0.65625 16.125 0.734375 15.25 0.734375 Z M 15.25 0.734375 "/></g></g></g><g fill="#a6a4a4" fill-opacity="1"><g transform="translate(286.279269, 69.939506)"><g><path d="M 9.515625 -45.6875 C 8.304688 -45.6875 7.328125 -46.0625 6.578125 -46.8125 C 5.828125 -47.570312 5.453125 -48.53125 5.453125 -49.6875 C 5.453125 -50.84375 5.828125 -51.796875 6.578125 -52.546875 C 7.328125 -53.296875 8.304688 -53.671875 9.515625 -53.671875 C 10.710938 -53.671875 11.6875 -53.296875 12.4375 -52.546875 C 13.195312 -51.796875 13.578125 -50.84375 13.578125 -49.6875 C 13.578125 -48.53125 13.195312 -47.570312 12.4375 -46.8125 C 11.6875 -46.0625 10.710938 -45.6875 9.515625 -45.6875 Z M 6.671875 0 L 6.671875 -38.296875 L 12.328125 -38.296875 L 12.328125 0 Z M 6.671875 0 "/></g></g></g><g fill="#a6a4a4" fill-opacity="1"><g transform="translate(305.269733, 69.939506)"><g><path d="M 17.46875 0.734375 C 15.0625 0.734375 12.832031 0.414062 10.78125 -0.21875 C 8.726562 -0.863281 6.992188 -1.738281 5.578125 -2.84375 C 4.171875 -3.957031 3.179688 -5.207031 2.609375 -6.59375 L 5.9375 -10.0625 L 6.671875 -10.0625 C 7.921875 -8.164062 9.421875 -6.738281 11.171875 -5.78125 C 12.929688 -4.820312 15.03125 -4.34375 17.46875 -4.34375 C 20.289062 -4.34375 22.4375 -4.890625 23.90625 -5.984375 C 25.375 -7.085938 26.109375 -8.625 26.109375 -10.59375 C 26.109375 -12.09375 25.660156 -13.332031 24.765625 -14.3125 C 23.878906 -15.300781 22.441406 -16.039062 20.453125 -16.53125 L 14 -18.125 C 10.539062 -18.957031 8.019531 -20.273438 6.4375 -22.078125 C 4.851562 -23.890625 4.0625 -26.125 4.0625 -28.78125 C 4.0625 -30.863281 4.59375 -32.675781 5.65625 -34.21875 C 6.71875 -35.757812 8.25 -36.945312 10.25 -37.78125 C 12.257812 -38.613281 14.640625 -39.03125 17.390625 -39.03125 C 20.910156 -39.03125 23.679688 -38.535156 25.703125 -37.546875 C 27.734375 -36.566406 29.316406 -35.195312 30.453125 -33.4375 L 27.25 -30.3125 L 26.5625 -30.3125 C 25.332031 -31.726562 23.992188 -32.75 22.546875 -33.375 C 21.097656 -34 19.378906 -34.3125 17.390625 -34.3125 C 14.867188 -34.3125 12.9375 -33.859375 11.59375 -32.953125 C 10.25 -32.046875 9.578125 -30.738281 9.578125 -29.03125 C 9.578125 -27.476562 10.050781 -26.226562 11 -25.28125 C 11.957031 -24.332031 13.613281 -23.566406 15.96875 -22.984375 L 22.328125 -21.453125 C 25.660156 -20.671875 28.066406 -19.363281 29.546875 -17.53125 C 31.023438 -15.707031 31.765625 -13.414062 31.765625 -10.65625 C 31.765625 -8.414062 31.234375 -6.4375 30.171875 -4.71875 C 29.109375 -3.007812 27.5 -1.671875 25.34375 -0.703125 C 23.195312 0.253906 20.570312 0.734375 17.46875 0.734375 Z M 17.46875 0.734375 "/></g></g></g></svg>