<svg xmlns="http://www.w3.org/2000/svg" xmlns:xlink="http://www.w3.org/1999/xlink" width="480" zoomAndPan="magnify" viewBox="0 0 360 96.749999" height="129" preserveAspectRatio="xMidYMid meet" version="1.0"><defs><g/></defs><g fill="#a6a4a4" fill-opacity="1"><g transform="translate(73.828797, 69.939506)"><g><path d="M 26.703125 0.734375 C 22.441406 0.734375 18.6875 -0.238281 15.4375 -2.1875 C 12.1875 -4.132812 9.644531 -7.0625 7.8125 -10.96875 C 5.976562 -14.882812 5.0625 -19.6875 5.0625 -25.375 C 5.0625 -31.070312 6.039062 -35.875 8 -39.78125 C 9.957031 -43.695312 12.671875 -46.625 16.140625 -48.5625 C 19.617188 -50.507812 23.625 -51.484375 28.15625 -51.484375 C 33.019531 -51.484375 37.015625 -50.609375 40.140625 -48.859375 C 43.265625 -47.117188 45.472656 -44.515625 46.765625 -41.046875 L 42.875 -38.75 L 42.015625 -38.75 C 40.691406 -41.382812 38.90625 -43.273438 36.65625 -44.421875 C 34.414062 -45.566406 31.582031 -46.140625 28.15625 -46.140625 C 17.019531 -46.140625 11.453125 -39.21875 11.453125 -25.375 C 11.453125 -18.175781 12.851562 -12.921875 15.65625 -9.609375 C 18.457031 -6.304688 22.382812 -4.65625 27.4375 -4.65625 C 32.0625 -4.65625 35.523438 -5.707031 37.828125 -7.8125 C 40.128906 -9.914062 41.28125 -13.238281 41.28125 -17.78125 L 41.28125 -22.25 L 26.84375 -22.25 L 26.84375 -27.046875 L 47.078125 -27.046875 L 47.078125 0 L 41.5625 0 L 41.5625 -6.8125 L 40.828125 -6.984375 C 39.484375 -4.367188 37.613281 -2.425781 35.21875 -1.15625 C 32.820312 0.101562 29.984375 0.734375 26.703125 0.734375 Z M 26.703125 0.734375 "/></g></g></g><g fill="#a6a4a4" fill-opacity="1"><g transform="translate(126.599389, 69.939506)"><g><path d="M 36.484375 -17.84375 L 10.171875 -17.84375 C 10.335938 -13.195312 11.453125 -9.785156 13.515625 -7.609375 C 15.585938 -5.429688 18.429688 -4.34375 22.046875 -4.34375 C 24.773438 -4.34375 26.972656 -4.828125 28.640625 -5.796875 C 30.304688 -6.765625 31.613281 -8.289062 32.5625 -10.375 L 33.296875 -10.375 L 36.984375 -8.1875 C 35.867188 -5.414062 34.085938 -3.234375 31.640625 -1.640625 C 29.203125 -0.0546875 26.003906 0.734375 22.046875 0.734375 C 18.347656 0.734375 15.164062 0.00390625 12.5 -1.453125 C 9.832031 -2.910156 7.78125 -5.117188 6.34375 -8.078125 C 4.914062 -11.046875 4.203125 -14.726562 4.203125 -19.125 C 4.203125 -23.476562 4.957031 -27.148438 6.46875 -30.140625 C 7.988281 -33.128906 10.0625 -35.359375 12.6875 -36.828125 C 15.3125 -38.296875 18.316406 -39.03125 21.703125 -39.03125 C 26.609375 -39.03125 30.4375 -37.644531 33.1875 -34.875 C 35.945312 -32.113281 37.335938 -28.007812 37.359375 -22.5625 C 37.359375 -20.4375 37.3125 -19.003906 37.21875 -18.265625 Z M 31.765625 -22.5625 C 31.671875 -26.644531 30.769531 -29.609375 29.0625 -31.453125 C 27.351562 -33.304688 24.898438 -34.234375 21.703125 -34.234375 C 18.347656 -34.234375 15.710938 -33.300781 13.796875 -31.4375 C 11.890625 -29.570312 10.726562 -26.613281 10.3125 -22.5625 Z M 31.765625 -22.5625 "/></g></g></g><g fill="#a6a4a4" fill-opacity="1"><g transform="translate(167.427162, 69.939506)"><g><path d="M 15.25 0.734375 C 12.539062 0.734375 10.410156 -0.0351562 8.859375 -1.578125 C 7.304688 -3.117188 6.53125 -5.414062 6.53125 -8.46875 L 6.53125 -53.671875 L 12.1875 -53.671875 L 12.1875 -8.859375 C 12.1875 -7.253906 12.492188 -6.097656 13.109375 -5.390625 C 13.722656 -4.691406 14.675781 -4.34375 15.96875 -4.34375 C 16.757812 -4.34375 17.5625 -4.46875 18.375 -4.71875 L 18.859375 -4.578125 L 19.515625 -0.140625 C 19.097656 0.140625 18.5 0.351562 17.71875 0.5 C 16.945312 0.65625 16.125 0.734375 15.25 0.734375 Z M 15.25 0.734375 "/></g></g></g><g fill="#a6a4a4" fill-opacity="1"><g transform="translate(188.257658, 69.939506)"><g><path d="M 9.515625 -45.6875 C 8.304688 -45.6875 7.328125 -46.0625 6.578125 -46.8125 C 5.828125 -47.570312 5.453125 -48.53125 5.453125 -49.6875 C 5.453125 -50.84375 5.828125 -51.796875 6.578125 -52.546875 C 7.328125 -53.296875 8.304688 -53.671875 9.515625 -53.671875 C 10.710938 -53.671875 11.6875 -53.296875 12.4375 -52.546875 C 13.195312 -51.796875 13.578125 -50.84375 13.578125 -49.6875 C 13.578125 -48.53125 13.195312 -47.570312 12.4375 -46.8125 C 11.6875 -46.0625 10.710938 -45.6875 9.515625 -45.6875 Z M 6.671875 0 L 6.671875 -38.296875 L 12.328125 -38.296875 L 12.328125 0 Z M 6.671875 0 "/></g></g></g><g fill="#a6a4a4" fill-opacity="1"><g transform="translate(207.248133, 69.939506)"><g><path d="M 18.921875 0.734375 C 14.597656 0.734375 11.375 -0.410156 9.25 -2.703125 C 7.132812 -4.992188 6.078125 -8.351562 6.078125 -12.78125 L 6.078125 -38.296875 L 11.734375 -38.296875 L 11.734375 -12.921875 C 11.734375 -7.109375 14.46875 -4.203125 19.9375 -4.203125 C 23.40625 -4.203125 26.144531 -5.332031 28.15625 -7.59375 C 30.175781 -9.863281 31.1875 -13.546875 31.1875 -18.640625 L 31.1875 -38.296875 L 36.84375 -38.296875 L 36.84375 0 L 31.5 0 L 31.5 -6 L 30.765625 -6.1875 C 29.441406 -3.84375 27.859375 -2.101562 26.015625 -0.96875 C 24.179688 0.164062 21.816406 0.734375 18.921875 0.734375 Z M 18.921875 0.734375 "/></g></g></g><g fill="#a6a4a4" fill-opacity="1"><g transform="translate(250.749159, 69.939506)"><g><path d="M 17.46875 0.734375 C 15.0625 0.734375 12.832031 0.414062 10.78125 -0.21875 C 8.726562 -0.863281 6.992188 -1.738281 5.578125 -2.84375 C 4.171875 -3.957031 3.179688 -5.207031 2.609375 -6.59375 L 5.9375 -10.0625 L 6.671875 -10.0625 C 7.921875 -8.164062 9.421875 -6.738281 11.171875 -5.78125 C 12.929688 -4.820312 15.03125 -4.34375 17.46875 -4.34375 C 20.289062 -4.34375 22.4375 -4.890625 23.90625 -5.984375 C 25.375 -7.085938 26.109375 -8.625 26.109375 -10.59375 C 26.109375 -12.09375 25.660156 -13.332031 24.765625 -14.3125 C 23.878906 -15.300781 22.441406 -16.039062 20.453125 -16.53125 L 14 -18.125 C 10.539062 -18.957031 8.019531 -20.273438 6.4375 -22.078125 C 4.851562 -23.890625 4.0625 -26.125 4.0625 -28.78125 C 4.0625 -30.863281 4.59375 -32.675781 5.65625 -34.21875 C 6.71875 -35.757812 8.25 -36.945312 10.25 -37.78125 C 12.257812 -38.613281 14.640625 -39.03125 17.390625 -39.03125 C 20.910156 -39.03125 23.679688 -38.535156 25.703125 -37.546875 C 27.734375 -36.566406 29.316406 -35.195312 30.453125 -33.4375 L 27.25 -30.3125 L 26.5625 -30.3125 C 25.332031 -31.726562 23.992188 -32.75 22.546875 -33.375 C 21.097656 -34 19.378906 -34.3125 17.390625 -34.3125 C 14.867188 -34.3125 12.9375 -33.859375 11.59375 -32.953125 C 10.25 -32.046875 9.578125 -30.738281 9.578125 -29.03125 C 9.578125 -27.476562 10.050781 -26.226562 11 -25.28125 C 11.957031 -24.332031 13.613281 -23.566406 15.96875 -22.984375 L 22.328125 -21.453125 C 25.660156 -20.671875 28.066406 -19.363281 29.546875 -17.53125 C 31.023438 -15.707031 31.765625 -13.414062 31.765625 -10.65625 C 31.765625 -8.414062 31.234375 -6.4375 30.171875 -4.71875 C 29.109375 -3.007812 27.5 -1.671875 25.34375 -0.703125 C 23.195312 0.253906 20.570312 0.734375 17.46875 0.734375 Z M 17.46875 0.734375 "/></g></g></g></svg>