<svg xmlns="http://www.w3.org/2000/svg" xmlns:xlink="http://www.w3.org/1999/xlink" width="480" zoomAndPan="magnify" viewBox="0 0 360 96.749999" height="129" preserveAspectRatio="xMidYMid meet" version="1.0"><defs><g/></defs><g fill="#a6a4a4" fill-opacity="1"><g transform="translate(37.757943, 69.939506)"><g><path d="M 16.765625 0.734375 C 14.242188 0.734375 11.929688 0.359375 9.828125 -0.390625 C 7.722656 -1.148438 5.945312 -2.175781 4.5 -3.46875 C 3.050781 -4.769531 1.988281 -6.207031 1.3125 -7.78125 L 4.40625 -11.84375 L 5.28125 -11.84375 C 6.300781 -9.664062 7.800781 -7.945312 9.78125 -6.6875 C 11.757812 -5.425781 14.085938 -4.796875 16.765625 -4.796875 C 18.941406 -4.796875 20.710938 -5.144531 22.078125 -5.84375 C 23.441406 -6.550781 24.46875 -7.722656 25.15625 -9.359375 C 25.84375 -10.992188 26.1875 -13.195312 26.1875 -15.96875 L 26.1875 -50.765625 L 32.125 -50.765625 L 32.125 -15.875 C 32.125 -10.125 30.84375 -5.914062 28.28125 -3.25 C 25.71875 -0.59375 21.878906 0.734375 16.765625 0.734375 Z M 16.765625 0.734375 "/></g></g></g><g fill="#a6a4a4" fill-opacity="1"><g transform="translate(77.092869, 69.939506)"><g><path d="M 21.984375 0.734375 C 18.367188 0.734375 15.222656 -0.03125 12.546875 -1.5625 C 9.878906 -3.09375 7.820312 -5.34375 6.375 -8.3125 C 4.925781 -11.289062 4.203125 -14.894531 4.203125 -19.125 C 4.203125 -23.363281 4.925781 -26.972656 6.375 -29.953125 C 7.820312 -32.941406 9.878906 -35.203125 12.546875 -36.734375 C 15.222656 -38.265625 18.367188 -39.03125 21.984375 -39.03125 C 25.585938 -39.03125 28.726562 -38.265625 31.40625 -36.734375 C 34.082031 -35.203125 36.140625 -32.941406 37.578125 -29.953125 C 39.023438 -26.972656 39.75 -23.363281 39.75 -19.125 C 39.75 -14.894531 39.023438 -11.289062 37.578125 -8.3125 C 36.140625 -5.34375 34.082031 -3.09375 31.40625 -1.5625 C 28.726562 -0.03125 25.585938 0.734375 21.984375 0.734375 Z M 21.984375 -4.34375 C 25.796875 -4.34375 28.710938 -5.546875 30.734375 -7.953125 C 32.765625 -10.359375 33.78125 -14.082031 33.78125 -19.125 C 33.78125 -24.195312 32.765625 -27.9375 30.734375 -30.34375 C 28.710938 -32.75 25.796875 -33.953125 21.984375 -33.953125 C 18.160156 -33.953125 15.226562 -32.742188 13.1875 -30.328125 C 11.15625 -27.910156 10.140625 -24.175781 10.140625 -19.125 C 10.140625 -14.082031 11.15625 -10.359375 13.1875 -7.953125 C 15.226562 -5.546875 18.160156 -4.34375 21.984375 -4.34375 Z M 21.984375 -4.34375 "/></g></g></g><g fill="#a6a4a4" fill-opacity="1"><g transform="translate(121.045216, 69.939506)"><g><path d="M 19 0 L 11.84375 0 L 2.46875 -38.296875 L 8.0625 -38.296875 L 15.3125 -6.59375 L 16.046875 -6.59375 L 24.96875 -38.296875 L 30.90625 -38.296875 L 40.109375 -6.59375 L 40.828125 -6.59375 L 47.953125 -38.296875 L 53.359375 -38.296875 L 44.09375 0 L 36.90625 0 L 28.15625 -29.71875 L 27.4375 -29.71875 Z M 19 0 "/></g></g></g><g fill="#a6a4a4" fill-opacity="1"><g transform="translate(176.870947, 69.939506)"><g><path d="M 15.796875 0.734375 C 12.023438 0.734375 9.078125 -0.25 6.953125 -2.21875 C 4.835938 -4.1875 3.78125 -7 3.78125 -10.65625 C 3.78125 -12.925781 4.25 -14.84375 5.1875 -16.40625 C 6.125 -17.96875 7.578125 -19.238281 9.546875 -20.21875 C 11.515625 -21.207031 14.082031 -21.96875 17.25 -22.5 C 20.03125 -22.957031 22.144531 -23.476562 23.59375 -24.0625 C 25.039062 -24.644531 26.007812 -25.289062 26.5 -26 C 27 -26.71875 27.25 -27.625 27.25 -28.71875 C 27.25 -30.445312 26.65625 -31.773438 25.46875 -32.703125 C 24.28125 -33.628906 22.363281 -34.09375 19.71875 -34.09375 C 17.238281 -34.09375 15.113281 -33.613281 13.34375 -32.65625 C 11.570312 -31.695312 9.945312 -30.269531 8.46875 -28.375 L 7.78125 -28.375 L 5 -32.296875 C 6.625 -34.347656 8.6875 -35.984375 11.1875 -37.203125 C 13.6875 -38.421875 16.53125 -39.03125 19.71875 -39.03125 C 24.238281 -39.03125 27.566406 -38.039062 29.703125 -36.0625 C 31.847656 -34.082031 32.921875 -31.34375 32.921875 -27.84375 L 32.921875 -7.53125 C 32.921875 -5.40625 33.820312 -4.34375 35.625 -4.34375 C 36.226562 -4.34375 36.804688 -4.445312 37.359375 -4.65625 L 37.84375 -4.515625 L 38.5 -0.59375 C 38.082031 -0.3125 37.53125 -0.0976562 36.84375 0.046875 C 36.164062 0.203125 35.46875 0.28125 34.75 0.28125 C 32.644531 0.28125 31.054688 -0.179688 29.984375 -1.109375 C 28.910156 -2.035156 28.222656 -3.398438 27.921875 -5.203125 L 27.1875 -5.28125 C 26.101562 -3.257812 24.632812 -1.75 22.78125 -0.75 C 20.925781 0.238281 18.597656 0.734375 15.796875 0.734375 Z M 17.046875 -3.78125 C 19.179688 -3.78125 21.03125 -4.269531 22.59375 -5.25 C 24.15625 -6.238281 25.351562 -7.625 26.1875 -9.40625 C 27.019531 -11.1875 27.4375 -13.25 27.4375 -15.59375 L 27.4375 -20.453125 L 26.765625 -20.59375 C 25.910156 -19.988281 24.867188 -19.484375 23.640625 -19.078125 C 22.421875 -18.671875 20.707031 -18.304688 18.5 -17.984375 C 16.28125 -17.679688 14.515625 -17.21875 13.203125 -16.59375 C 11.898438 -15.96875 10.96875 -15.175781 10.40625 -14.21875 C 9.851562 -13.257812 9.578125 -12.070312 9.578125 -10.65625 C 9.578125 -8.414062 10.238281 -6.707031 11.5625 -5.53125 C 12.882812 -4.363281 14.710938 -3.78125 17.046875 -3.78125 Z M 17.046875 -3.78125 "/></g></g></g><g fill="#a6a4a4" fill-opacity="1"><g transform="translate(216.483613, 69.939506)"><g><path d="M 6.671875 0 L 6.671875 -38.296875 L 12.046875 -38.296875 L 12.046875 -32.296875 L 12.78125 -32.125 C 14.050781 -34.363281 15.675781 -36.070312 17.65625 -37.25 C 19.632812 -38.4375 22.046875 -39.03125 24.890625 -39.03125 C 29.503906 -39.03125 32.84375 -37.851562 34.90625 -35.5 C 36.976562 -33.15625 38.015625 -29.539062 38.015625 -24.65625 L 38.015625 0 L 32.359375 0 L 32.359375 -24.515625 C 32.359375 -26.828125 32.0625 -28.679688 31.46875 -30.078125 C 30.882812 -31.484375 29.972656 -32.503906 28.734375 -33.140625 C 27.492188 -33.773438 25.867188 -34.09375 23.859375 -34.09375 C 20.410156 -34.09375 17.625 -32.953125 15.5 -30.671875 C 13.382812 -28.390625 12.328125 -24.71875 12.328125 -19.65625 L 12.328125 0 Z M 6.671875 0 "/></g></g></g><g fill="#a6a4a4" fill-opacity="1"><g transform="translate(260.574831, 69.939506)"><g><path d="M 36.484375 -17.84375 L 10.171875 -17.84375 C 10.335938 -13.195312 11.453125 -9.785156 13.515625 -7.609375 C 15.585938 -5.429688 18.429688 -4.34375 22.046875 -4.34375 C 24.773438 -4.34375 26.972656 -4.828125 28.640625 -5.796875 C 30.304688 -6.765625 31.613281 -8.289062 32.5625 -10.375 L 33.296875 -10.375 L 36.984375 -8.1875 C 35.867188 -5.414062 34.085938 -3.234375 31.640625 -1.640625 C 29.203125 -0.0546875 26.003906 0.734375 22.046875 0.734375 C 18.347656 0.734375 15.164062 0.00390625 12.5 -1.453125 C 9.832031 -2.910156 7.78125 -5.117188 6.34375 -8.078125 C 4.914062 -11.046875 4.203125 -14.726562 4.203125 -19.125 C 4.203125 -23.476562 4.957031 -27.148438 6.46875 -30.140625 C 7.988281 -33.128906 10.0625 -35.359375 12.6875 -36.828125 C 15.3125 -38.296875 18.316406 -39.03125 21.703125 -39.03125 C 26.609375 -39.03125 30.4375 -37.644531 33.1875 -34.875 C 35.945312 -32.113281 37.335938 -28.007812 37.359375 -22.5625 C 37.359375 -20.4375 37.3125 -19.003906 37.21875 -18.265625 Z M 31.765625 -22.5625 C 31.671875 -26.644531 30.769531 -29.609375 29.0625 -31.453125 C 27.351562 -33.304688 24.898438 -34.234375 21.703125 -34.234375 C 18.347656 -34.234375 15.710938 -33.300781 13.796875 -31.4375 C 11.890625 -29.570312 10.726562 -26.613281 10.3125 -22.5625 Z M 31.765625 -22.5625 "/></g></g></g><g fill="#a6a4a4" fill-opacity="1"><g transform="translate(301.402604, 69.939506)"><g><path d="M 15.25 0.734375 C 12.539062 0.734375 10.410156 -0.0351562 8.859375 -1.578125 C 7.304688 -3.117188 6.53125 -5.414062 6.53125 -8.46875 L 6.53125 -53.671875 L 12.1875 -53.671875 L 12.1875 -8.859375 C 12.1875 -7.253906 12.492188 -6.097656 13.109375 -5.390625 C 13.722656 -4.691406 14.675781 -4.34375 15.96875 -4.34375 C 16.757812 -4.34375 17.5625 -4.46875 18.375 -4.71875 L 18.859375 -4.578125 L 19.515625 -0.140625 C 19.097656 0.140625 18.5 0.351562 17.71875 0.5 C 16.945312 0.65625 16.125 0.734375 15.25 0.734375 Z M 15.25 0.734375 "/></g></g></g></svg>