<svg xmlns="http://www.w3.org/2000/svg" xmlns:xlink="http://www.w3.org/1999/xlink" width="480" zoomAndPan="magnify" viewBox="0 0 360 96.749999" height="129" preserveAspectRatio="xMidYMid meet" version="1.0"><defs><g/></defs><g fill="#a6a4a4" fill-opacity="1"><g transform="translate(96.43445, 69.939506)"><g><path d="M 15.796875 0 L 6.59375 0 L 6.59375 -50.765625 L 19.71875 -50.765625 L 32.5625 -13.4375 L 33.296875 -13.4375 L 46.078125 -50.765625 L 58.890625 -50.765625 L 58.890625 0 L 49.375 0 L 49.375 -33.546875 L 48.5 -33.6875 L 36.765625 0 L 28.40625 0 L 16.671875 -33.6875 L 15.796875 -33.546875 Z M 15.796875 0 "/></g></g></g><g fill="#a6a4a4" fill-opacity="1"><g transform="translate(161.946367, 69.939506)"><g><path d="M 17.921875 0.734375 C 15.304688 0.734375 12.910156 0.425781 10.734375 -0.1875 C 8.554688 -0.800781 6.695312 -1.644531 5.15625 -2.71875 C 3.613281 -3.800781 2.472656 -5.035156 1.734375 -6.421875 L 7.078125 -12.1875 L 7.8125 -12.1875 C 9.082031 -10.476562 10.585938 -9.191406 12.328125 -8.328125 C 14.066406 -7.472656 15.953125 -7.046875 17.984375 -7.046875 C 19.859375 -7.046875 21.269531 -7.378906 22.21875 -8.046875 C 23.164062 -8.722656 23.640625 -9.6875 23.640625 -10.9375 C 23.640625 -11.90625 23.296875 -12.71875 22.609375 -13.375 C 21.929688 -14.039062 20.832031 -14.5625 19.3125 -14.9375 L 14.234375 -16.140625 C 10.441406 -17.046875 7.671875 -18.429688 5.921875 -20.296875 C 4.171875 -22.160156 3.296875 -24.523438 3.296875 -27.390625 C 3.296875 -29.773438 3.898438 -31.847656 5.109375 -33.609375 C 6.328125 -35.367188 8.039062 -36.710938 10.25 -37.640625 C 12.46875 -38.566406 15.046875 -39.03125 17.984375 -39.03125 C 21.429688 -39.03125 24.289062 -38.53125 26.5625 -37.53125 C 28.832031 -36.539062 30.601562 -35.210938 31.875 -33.546875 L 26.734375 -27.984375 L 26.046875 -27.984375 C 24.972656 -29.191406 23.769531 -30.070312 22.4375 -30.625 C 21.113281 -31.175781 19.628906 -31.453125 17.984375 -31.453125 C 14.191406 -31.453125 12.296875 -30.273438 12.296875 -27.921875 C 12.296875 -26.921875 12.644531 -26.109375 13.34375 -25.484375 C 14.050781 -24.859375 15.296875 -24.347656 17.078125 -23.953125 L 21.8125 -22.921875 C 25.695312 -22.085938 28.535156 -20.75 30.328125 -18.90625 C 32.117188 -17.0625 33.015625 -14.59375 33.015625 -11.5 C 33.015625 -9.0625 32.410156 -6.914062 31.203125 -5.0625 C 30.003906 -3.21875 28.269531 -1.789062 26 -0.78125 C 23.738281 0.226562 21.046875 0.734375 17.921875 0.734375 Z M 17.921875 0.734375 "/></g></g></g><g fill="#a6a4a4" fill-opacity="1"><g transform="translate(197.254064, 69.939506)"><g><path d="M 17.53125 0.734375 C 13.226562 0.734375 10.050781 -0.4375 8 -2.78125 C 5.957031 -5.132812 4.9375 -8.515625 4.9375 -12.921875 L 4.9375 -38.296875 L 14.546875 -38.296875 L 14.546875 -14.125 C 14.546875 -11.789062 15.046875 -10.082031 16.046875 -9 C 17.054688 -7.925781 18.617188 -7.390625 20.734375 -7.390625 C 23.390625 -7.390625 25.457031 -8.265625 26.9375 -10.015625 C 28.425781 -11.765625 29.171875 -14.515625 29.171875 -18.265625 L 29.171875 -38.296875 L 38.78125 -38.296875 L 38.78125 0 L 29.546875 0 L 29.546875 -5.625 L 28.8125 -5.796875 C 27.59375 -3.597656 26.097656 -1.957031 24.328125 -0.875 C 22.554688 0.195312 20.289062 0.734375 17.53125 0.734375 Z M 17.53125 0.734375 "/></g></g></g><g fill="#a6a4a4" fill-opacity="1"><g transform="translate(241.553586, 69.939506)"><g><path d="M 15.90625 0.734375 C 12.457031 0.734375 9.820312 -0.195312 8 -2.0625 C 6.1875 -3.925781 5.28125 -6.757812 5.28125 -10.5625 L 5.28125 -53.671875 L 14.890625 -53.671875 L 14.890625 -10.9375 C 14.890625 -8.601562 15.863281 -7.4375 17.8125 -7.4375 C 18.363281 -7.4375 18.953125 -7.523438 19.578125 -7.703125 L 20.0625 -7.5625 L 20.9375 -0.171875 C 20.40625 0.109375 19.695312 0.328125 18.8125 0.484375 C 17.9375 0.648438 16.96875 0.734375 15.90625 0.734375 Z M 15.90625 0.734375 "/></g></g></g><g fill="#a6a4a4" fill-opacity="1"><g transform="translate(197.077995, 88.324307)"><g><path d="M 3.796875 0 L 1.59375 0 L 1.59375 -12.21875 L 4.75 -12.21875 L 7.84375 -3.234375 L 8.015625 -3.234375 L 11.09375 -12.21875 L 14.171875 -12.21875 L 14.171875 0 L 11.875 0 L 11.875 -8.0625 L 11.671875 -8.109375 L 8.84375 0 L 6.828125 0 L 4.015625 -8.109375 L 3.796875 -8.0625 Z M 3.796875 0 "/></g></g><g transform="translate(212.836934, 88.324307)"><g><path d="M 5.359375 0.171875 C 4.453125 0.171875 3.65625 -0.0078125 2.96875 -0.375 C 2.289062 -0.75 1.765625 -1.289062 1.390625 -2 C 1.015625 -2.71875 0.828125 -3.585938 0.828125 -4.609375 C 0.828125 -5.617188 1.015625 -6.484375 1.390625 -7.203125 C 1.765625 -7.921875 2.289062 -8.460938 2.96875 -8.828125 C 3.65625 -9.203125 4.453125 -9.390625 5.359375 -9.390625 C 6.253906 -9.390625 7.039062 -9.203125 7.71875 -8.828125 C 8.40625 -8.460938 8.9375 -7.921875 9.3125 -7.203125 C 9.695312 -6.484375 9.890625 -5.617188 9.890625 -4.609375 C 9.890625 -3.585938 9.695312 -2.71875 9.3125 -2 C 8.9375 -1.289062 8.40625 -0.75 7.71875 -0.375 C 7.039062 -0.0078125 6.253906 0.171875 5.359375 0.171875 Z M 5.359375 -1.78125 C 6.785156 -1.78125 7.5 -2.722656 7.5 -4.609375 C 7.5 -5.578125 7.316406 -6.285156 6.953125 -6.734375 C 6.585938 -7.191406 6.054688 -7.421875 5.359375 -7.421875 C 3.921875 -7.421875 3.203125 -6.484375 3.203125 -4.609375 C 3.203125 -2.722656 3.921875 -1.78125 5.359375 -1.78125 Z M 5.359375 -1.78125 "/></g></g><g transform="translate(223.543325, 88.324307)"><g><path d="M 6.34375 0 L 3.578125 0 L 0.171875 -9.21875 L 2.59375 -9.21875 L 4.890625 -2.640625 L 5.078125 -2.640625 L 7.375 -9.21875 L 9.734375 -9.21875 Z M 6.34375 0 "/></g></g><g transform="translate(233.447989, 88.324307)"><g><path d="M 9.109375 -4.078125 L 3.1875 -4.078125 C 3.25 -3.273438 3.472656 -2.691406 3.859375 -2.328125 C 4.253906 -1.960938 4.789062 -1.78125 5.46875 -1.78125 C 5.988281 -1.78125 6.414062 -1.878906 6.75 -2.078125 C 7.082031 -2.273438 7.347656 -2.578125 7.546875 -2.984375 L 7.71875 -2.984375 L 9.25 -2 C 8.957031 -1.351562 8.503906 -0.828125 7.890625 -0.421875 C 7.285156 -0.0234375 6.476562 0.171875 5.46875 0.171875 C 4.507812 0.171875 3.679688 -0.00390625 2.984375 -0.359375 C 2.296875 -0.722656 1.765625 -1.265625 1.390625 -1.984375 C 1.015625 -2.703125 0.828125 -3.578125 0.828125 -4.609375 C 0.828125 -5.648438 1.023438 -6.53125 1.421875 -7.25 C 1.816406 -7.96875 2.347656 -8.503906 3.015625 -8.859375 C 3.691406 -9.210938 4.453125 -9.390625 5.296875 -9.390625 C 6.597656 -9.390625 7.59375 -9.039062 8.28125 -8.34375 C 8.976562 -7.65625 9.328125 -6.644531 9.328125 -5.3125 C 9.328125 -4.832031 9.3125 -4.457031 9.28125 -4.1875 Z M 7.125 -5.578125 C 7.09375 -6.285156 6.925781 -6.796875 6.625 -7.109375 C 6.320312 -7.429688 5.878906 -7.59375 5.296875 -7.59375 C 4.128906 -7.59375 3.441406 -6.921875 3.234375 -5.578125 Z M 6.015625 -10.140625 L 4.453125 -10.140625 L 4.453125 -10.3125 L 5.65625 -12.921875 L 8.234375 -12.921875 L 8.234375 -12.734375 Z M 6.015625 -10.140625 "/></g></g><g transform="translate(243.46122, 88.324307)"><g><path d="M 2.484375 -10.3125 C 2.066406 -10.3125 1.722656 -10.4375 1.453125 -10.6875 C 1.191406 -10.945312 1.0625 -11.273438 1.0625 -11.671875 C 1.0625 -12.066406 1.191406 -12.390625 1.453125 -12.640625 C 1.722656 -12.898438 2.066406 -13.03125 2.484375 -13.03125 C 2.765625 -13.03125 3.007812 -12.972656 3.21875 -12.859375 C 3.4375 -12.742188 3.601562 -12.582031 3.71875 -12.375 C 3.84375 -12.175781 3.90625 -11.941406 3.90625 -11.671875 C 3.90625 -11.410156 3.84375 -11.175781 3.71875 -10.96875 C 3.601562 -10.769531 3.4375 -10.609375 3.21875 -10.484375 C 3.007812 -10.367188 2.765625 -10.3125 2.484375 -10.3125 Z M 1.328125 0 L 1.328125 -9.21875 L 3.640625 -9.21875 L 3.640625 0 Z M 1.328125 0 "/></g></g><g transform="translate(248.421904, 88.324307)"><g><path d="M 4.3125 0.171875 C 3.675781 0.171875 3.097656 0.0976562 2.578125 -0.046875 C 2.054688 -0.191406 1.609375 -0.394531 1.234375 -0.65625 C 0.867188 -0.914062 0.597656 -1.210938 0.421875 -1.546875 L 1.703125 -2.9375 L 1.875 -2.9375 C 2.1875 -2.519531 2.550781 -2.207031 2.96875 -2 C 3.382812 -1.800781 3.835938 -1.703125 4.328125 -1.703125 C 4.773438 -1.703125 5.113281 -1.78125 5.34375 -1.9375 C 5.570312 -2.101562 5.6875 -2.332031 5.6875 -2.625 C 5.6875 -2.863281 5.601562 -3.0625 5.4375 -3.21875 C 5.28125 -3.375 5.015625 -3.5 4.640625 -3.59375 L 3.421875 -3.890625 C 2.515625 -4.097656 1.847656 -4.425781 1.421875 -4.875 C 1.003906 -5.332031 0.796875 -5.90625 0.796875 -6.59375 C 0.796875 -7.164062 0.941406 -7.660156 1.234375 -8.078125 C 1.523438 -8.503906 1.9375 -8.828125 2.46875 -9.046875 C 3 -9.273438 3.617188 -9.390625 4.328125 -9.390625 C 5.160156 -9.390625 5.847656 -9.269531 6.390625 -9.03125 C 6.929688 -8.789062 7.359375 -8.46875 7.671875 -8.0625 L 6.4375 -6.734375 L 6.265625 -6.734375 C 6.003906 -7.023438 5.710938 -7.234375 5.390625 -7.359375 C 5.078125 -7.492188 4.722656 -7.5625 4.328125 -7.5625 C 3.410156 -7.5625 2.953125 -7.28125 2.953125 -6.71875 C 2.953125 -6.476562 3.035156 -6.28125 3.203125 -6.125 C 3.378906 -5.976562 3.679688 -5.859375 4.109375 -5.765625 L 5.25 -5.515625 C 6.1875 -5.316406 6.867188 -4.992188 7.296875 -4.546875 C 7.722656 -4.109375 7.9375 -3.515625 7.9375 -2.765625 C 7.9375 -2.179688 7.789062 -1.664062 7.5 -1.21875 C 7.21875 -0.769531 6.800781 -0.425781 6.25 -0.1875 C 5.707031 0.0507812 5.0625 0.171875 4.3125 0.171875 Z M 4.3125 0.171875 "/></g></g></g></svg>