<svg xmlns="http://www.w3.org/2000/svg" xmlns:xlink="http://www.w3.org/1999/xlink" width="480" zoomAndPan="magnify" viewBox="0 0 360 96.749999" height="129" preserveAspectRatio="xMidYMid meet" version="1.0"><defs><g/></defs><g fill="#a6a4a4" fill-opacity="1"><g transform="translate(39.476159, 69.939506)"><g><path d="M 6.59375 0 L 6.59375 -50.765625 L 26.984375 -50.765625 C 32.234375 -50.765625 36.191406 -49.550781 38.859375 -47.125 C 41.535156 -44.707031 42.875 -41.367188 42.875 -37.109375 C 42.875 -34.035156 42.09375 -31.515625 40.53125 -29.546875 C 38.96875 -27.578125 36.640625 -26.070312 33.546875 -25.03125 L 33.546875 -24.3125 C 35.140625 -23.613281 36.425781 -22.582031 37.40625 -21.21875 C 38.394531 -19.851562 39.328125 -17.828125 40.203125 -15.140625 L 45.28125 0 L 34.96875 0 L 30 -15.171875 C 29.488281 -16.703125 28.914062 -17.890625 28.28125 -18.734375 C 27.644531 -19.578125 26.832031 -20.1875 25.84375 -20.5625 C 24.863281 -20.945312 23.585938 -21.140625 22.015625 -21.140625 L 16.625 -21.140625 L 16.625 0 Z M 25.765625 -29.09375 C 30.628906 -29.09375 33.0625 -31.363281 33.0625 -35.90625 C 33.0625 -40.507812 30.628906 -42.8125 25.765625 -42.8125 L 16.625 -42.8125 L 16.625 -29.09375 Z M 25.765625 -29.09375 "/></g></g></g><g fill="#a6a4a4" fill-opacity="1"><g transform="translate(86.934979, 69.939506)"><g><path d="M 17.53125 0.734375 C 13.226562 0.734375 10.050781 -0.4375 8 -2.78125 C 5.957031 -5.132812 4.9375 -8.515625 4.9375 -12.921875 L 4.9375 -38.296875 L 14.546875 -38.296875 L 14.546875 -14.125 C 14.546875 -11.789062 15.046875 -10.082031 16.046875 -9 C 17.054688 -7.925781 18.617188 -7.390625 20.734375 -7.390625 C 23.390625 -7.390625 25.457031 -8.265625 26.9375 -10.015625 C 28.425781 -11.765625 29.171875 -14.515625 29.171875 -18.265625 L 29.171875 -38.296875 L 38.78125 -38.296875 L 38.78125 0 L 29.546875 0 L 29.546875 -5.625 L 28.8125 -5.796875 C 27.59375 -3.597656 26.097656 -1.957031 24.328125 -0.875 C 22.554688 0.195312 20.289062 0.734375 17.53125 0.734375 Z M 17.53125 0.734375 "/></g></g></g><g fill="#a6a4a4" fill-opacity="1"><g transform="translate(131.234501, 69.939506)"><g><path d="M 18.921875 0.734375 C 15.890625 0.734375 13.207031 0 10.875 -1.46875 C 8.550781 -2.945312 6.726562 -5.171875 5.40625 -8.140625 C 4.09375 -11.117188 3.4375 -14.78125 3.4375 -19.125 C 3.4375 -23.5 4.113281 -27.175781 5.46875 -30.15625 C 6.820312 -33.132812 8.695312 -35.359375 11.09375 -36.828125 C 13.488281 -38.296875 16.257812 -39.03125 19.40625 -39.03125 C 21.789062 -39.03125 23.859375 -38.617188 25.609375 -37.796875 C 27.359375 -36.972656 28.832031 -35.691406 30.03125 -33.953125 L 30.765625 -34.125 L 30.765625 -53.671875 L 40.375 -53.671875 L 40.375 0 L 30.765625 0 L 30.765625 -4.96875 L 30.03125 -5.109375 C 28.96875 -3.296875 27.507812 -1.867188 25.65625 -0.828125 C 23.800781 0.210938 21.554688 0.734375 18.921875 0.734375 Z M 22.046875 -7.4375 C 24.753906 -7.4375 26.894531 -8.398438 28.46875 -10.328125 C 30.039062 -12.265625 30.828125 -15.195312 30.828125 -19.125 C 30.828125 -23.0625 30.039062 -26.003906 28.46875 -27.953125 C 26.894531 -29.898438 24.753906 -30.875 22.046875 -30.875 C 19.222656 -30.875 17.0625 -29.925781 15.5625 -28.03125 C 14.070312 -26.144531 13.328125 -23.175781 13.328125 -19.125 C 13.328125 -15.101562 14.070312 -12.148438 15.5625 -10.265625 C 17.0625 -8.378906 19.222656 -7.4375 22.046875 -7.4375 Z M 22.046875 -7.4375 "/></g></g></g><g fill="#a6a4a4" fill-opacity="1"><g transform="translate(177.131028, 69.939506)"><g><path d="M 5.515625 0 L 5.515625 -38.296875 L 14.75 -38.296875 L 14.75 -32.671875 L 15.484375 -32.5 C 17.867188 -36.851562 21.734375 -39.03125 27.078125 -39.03125 C 31.503906 -39.03125 34.75 -37.828125 36.8125 -35.421875 C 38.882812 -33.015625 39.921875 -29.503906 39.921875 -24.890625 L 39.921875 0 L 30.3125 0 L 30.3125 -23.71875 C 30.3125 -26.257812 29.800781 -28.09375 28.78125 -29.21875 C 27.757812 -30.34375 26.128906 -30.90625 23.890625 -30.90625 C 21.128906 -30.90625 18.976562 -30.015625 17.4375 -28.234375 C 15.90625 -26.453125 15.140625 -23.648438 15.140625 -19.828125 L 15.140625 0 Z M 5.515625 0 "/></g></g></g><g fill="#a6a4a4" fill-opacity="1"><g transform="translate(221.98603, 69.939506)"><g><path d="M 10.3125 -42.875 C 8.570312 -42.875 7.15625 -43.398438 6.0625 -44.453125 C 4.976562 -45.515625 4.4375 -46.878906 4.4375 -48.546875 C 4.4375 -50.179688 4.976562 -51.523438 6.0625 -52.578125 C 7.15625 -53.640625 8.570312 -54.171875 10.3125 -54.171875 C 11.46875 -54.171875 12.492188 -53.925781 13.390625 -53.4375 C 14.296875 -52.945312 15 -52.28125 15.5 -51.4375 C 16 -50.59375 16.25 -49.628906 16.25 -48.546875 C 16.25 -47.453125 16 -46.476562 15.5 -45.625 C 15 -44.769531 14.296875 -44.097656 13.390625 -43.609375 C 12.492188 -43.117188 11.46875 -42.875 10.3125 -42.875 Z M 5.515625 0 L 5.515625 -38.296875 L 15.140625 -38.296875 L 15.140625 0 Z M 5.515625 0 "/></g></g></g><g fill="#a6a4a4" fill-opacity="1"><g transform="translate(242.60821, 69.939506)"><g><path d="M 22.328125 0.734375 C 18.617188 0.734375 15.34375 -0.0351562 12.5 -1.578125 C 9.65625 -3.117188 7.429688 -5.378906 5.828125 -8.359375 C 4.234375 -11.347656 3.4375 -14.9375 3.4375 -19.125 C 3.4375 -23.34375 4.234375 -26.941406 5.828125 -29.921875 C 7.429688 -32.910156 9.644531 -35.175781 12.46875 -36.71875 C 15.289062 -38.257812 18.519531 -39.03125 22.15625 -39.03125 C 30.226562 -39.03125 35.398438 -36.101562 37.671875 -30.25 L 31.078125 -25.515625 L 30.34375 -25.515625 C 29.5625 -27.328125 28.535156 -28.671875 27.265625 -29.546875 C 26.003906 -30.429688 24.300781 -30.875 22.15625 -30.875 C 19.375 -30.875 17.207031 -29.910156 15.65625 -27.984375 C 14.101562 -26.066406 13.328125 -23.113281 13.328125 -19.125 C 13.328125 -15.195312 14.113281 -12.265625 15.6875 -10.328125 C 17.269531 -8.398438 19.484375 -7.4375 22.328125 -7.4375 C 24.410156 -7.4375 26.175781 -7.992188 27.625 -9.109375 C 29.070312 -10.234375 30.109375 -11.847656 30.734375 -13.953125 L 31.453125 -14.03125 L 38.296875 -10.28125 C 37.328125 -7.039062 35.523438 -4.394531 32.890625 -2.34375 C 30.265625 -0.289062 26.742188 0.734375 22.328125 0.734375 Z M 22.328125 0.734375 "/></g></g></g><g fill="#a6a4a4" fill-opacity="1"><g transform="translate(282.082007, 69.939506)"><g><path d="M 5.515625 0 L 5.515625 -53.671875 L 15.140625 -53.671875 L 15.140625 -23.890625 L 16.078125 -23.890625 L 27.15625 -38.296875 L 36.90625 -38.296875 L 36.90625 -37.5 L 23.890625 -20.6875 L 38.359375 -0.875 L 38.359375 0 L 28.234375 0 L 16.078125 -16.140625 L 15.140625 -16.140625 L 15.140625 0 Z M 5.515625 0 "/></g></g></g></svg>